RobotoSerifTextWide-RegularItalic 04h.ufo
<glyph name="parenleft" format="2">
  <advance width="408"/>
  <unicode hex="0028"/>
  <outline>
    <contour>
      <point x="173.0" y="80.95266934967592"/>
      <point x="253" y="-56"/>
      <point x="328" y="-127" type="curve"/>
      <point x="328" y="-130" type="line"/>
      <point x="255" y="-130" type="line"/>
      <point x="155" y="-46"/>
      <point x="77.0" y="97.9490528522673"/>
      <point x="77" y="259" type="curve" smooth="yes"/>
      <point x="77" y="482"/>
      <point x="239" y="663"/>
      <point x="395" y="750" type="curve"/>
      <point x="470" y="750" type="line"/>
      <point x="471" y="747" type="line"/>
      <point x="330" y="652"/>
      <point x="173" y="477"/>
      <point x="173" y="254" type="curve" smooth="yes"/>
    </contour>
  </outline>
</glyph>
<glyph name="five" format="2">
  <advance width="644"/>
  <unicode hex="0035"/>
  <outline>
    <contour>
      <point x="292" y="-90" type="curve" smooth="yes"/>
      <point x="474" y="-90"/>
      <point x="582.0" y="20.0"/>
      <point x="582" y="157" type="curve" smooth="yes"/>
      <point x="582.0" y="276.0"/>
      <point x="488.17283950617286" y="366.0"/>
      <point x="342" y="366" type="curve" smooth="yes"/>
      <point x="256.6806282722513" y="366.0"/>
      <point x="187.19636709802506" y="338.2869980663443"/>
      <point x="148" y="281" type="curve"/>
      <point x="175" y="275" type="line"/>
      <point x="231" y="589" type="line"/>
      <point x="193" y="530" type="line"/>
      <point x="559" y="530" type="line"/>
      <point x="587" y="609" type="line"/>
      <point x="166" y="609" type="line"/>
      <point x="100" y="239" type="line"/>
      <point x="159" y="239" type="line"/>
      <point x="195" y="278"/>
      <point x="247" y="305"/>
      <point x="319" y="305" type="curve" smooth="yes"/>
      <point x="423" y="305"/>
      <point x="480.0" y="247.05170877128143"/>
      <point x="480" y="158" type="curve" smooth="yes"/>
      <point x="480.0" y="49.0"/>
      <point x="411.82291666666663" y="-29.0"/>
      <point x="293" y="-29" type="curve" smooth="yes"/>
      <point x="163.7924528301887" y="-29.0"/>
      <point x="102.17105158824698" y="44.50915631198693"/>
      <point x="79" y="111" type="curve"/>
      <point x="17" y="77" type="line"/>
      <point x="55.23612982672305" y="-15.571682738382137"/>
      <point x="144" y="-90.0"/>
    </contour>
  </outline>
</glyph>
<glyph name="nine" format="2">
  <advance width="644"/>
  <unicode hex="0039"/>
  <outline>
    <contour>
      <point x="327" y="619" type="curve" smooth="yes"/>
      <point x="484.8308823529412" y="619.0"/>
      <point x="597.0" y="526.0"/>
      <point x="597" y="350" type="curve" smooth="yes"/>
      <point x="597" y="115"/>
      <point x="413" y="-84"/>
      <point x="49" y="-92" type="curve"/>
      <point x="48" y="-32" type="line"/>
      <point x="278" y="-21"/>
      <point x="422" y="68"/>
      <point x="473" y="217" type="curve" smooth="yes"/>
      <point x="489" y="265"/>
      <point x="495" y="319"/>
      <point x="495" y="376" type="curve" smooth="yes"/>
      <point x="495.0" y="496.0"/>
      <point x="428.1929824561404" y="558.0"/>
      <point x="327" y="558" type="curve" smooth="yes"/>
      <point x="235.90243902439022" y="558.0"/>
      <point x="174" y="498"/>
      <point x="161" y="414" type="curve" smooth="yes"/>
      <point x="159" y="402"/>
      <point x="159.0" y="389.0285714285714"/>
      <point x="159" y="376" type="curve" smooth="yes"/>
      <point x="159" y="289"/>
      <point x="214" y="238"/>
      <point x="303" y="238" type="curve" smooth="yes"/>
      <point x="397" y="238"/>
      <point x="467" y="289"/>
      <point x="518" y="374" type="curve"/>
      <point x="522" y="322" type="line"/>
      <point x="485" y="243"/>
      <point x="399" y="177"/>
      <point x="286" y="177" type="curve" smooth="yes"/>
      <point x="157" y="177"/>
      <point x="53" y="263"/>
      <point x="53" y="384" type="curve" smooth="yes"/>
      <point x="53.0" y="515.0"/>
      <point x="161.79411764705884" y="619.0"/>
    </contour>
  </outline>
</glyph>
<glyph name="t" format="2">
  <advance width="409"/>
  <unicode hex="0074"/>
  <anchor x="177" y="675" name="top"/>
  <anchor x="311" y="681" name="right"/>
  <anchor x="264" y="0" name="bottom"/>
  <outline>
    <contour>
      <point x="239" y="-11" type="curve" smooth="yes"/>
      <point x="286" y="-11"/>
      <point x="322" y="1"/>
      <point x="345" y="12" type="curve"/>
      <point x="355" y="70" type="line"/>
      <point x="341" y="65"/>
      <point x="296" y="50"/>
      <point x="258" y="50" type="curve" smooth="yes"/>
      <point x="211" y="50"/>
      <point x="187" y="69"/>
      <point x="187" y="110" type="curve" smooth="yes"/>
      <point x="187" y="132"/>
      <point x="191" y="171"/>
      <point x="197" y="207" type="curve" smooth="yes"/>
      <point x="273" y="648" type="line"/>
      <point x="187" y="648" type="line"/>
      <point x="171" y="557" type="line" smooth="yes"/>
      <point x="164" y="517"/>
      <point x="119" y="503"/>
      <point x="51" y="503" type="curve" smooth="yes"/>
      <point x="46" y="503" type="line"/>
      <point x="37" y="453" type="line"/>
      <point x="396" y="453" type="line"/>
      <point x="406" y="508" type="line"/>
      <point x="178" y="508" type="line"/>
      <point x="149" y="492" type="line"/>
      <point x="103" y="210" type="line" smooth="yes"/>
      <point x="96" y="169"/>
      <point x="94" y="135"/>
      <point x="94" y="110" type="curve" smooth="yes"/>
      <point x="94" y="27"/>
      <point x="149" y="-11"/>
    </contour>
  </outline>
</glyph>
<glyph name="braceleft" format="2">
  <advance width="382"/>
  <unicode hex="007B"/>
  <outline>
    <contour>
      <point x="280" y="271"/>
      <point x="255.05721582696748" y="292.36720055437445"/>
      <point x="141" y="312" type="curve"/>
      <point x="142" y="317" type="line"/>
      <point x="268.82980784800196" y="321.6974002906668"/>
      <point x="297" y="346"/>
      <point x="297" y="383" type="curve" smooth="yes"/>
      <point x="297.0" y="427.0"/>
      <point x="243.0" y="521"/>
      <point x="243" y="589" type="curve" smooth="yes"/>
      <point x="243" y="653"/>
      <point x="294" y="693"/>
      <point x="426" y="698" type="curve" smooth="yes"/>
      <point x="427" y="698"/>
      <point x="429" y="698"/>
      <point x="431" y="698" type="curve"/>
      <point x="421" y="747" type="line"/>
      <point x="417.0" y="747.0"/>
      <point x="414" y="747"/>
      <point x="410" y="747" type="curve" smooth="yes"/>
      <point x="228" y="747.0"/>
      <point x="146.0" y="690.0"/>
      <point x="146" y="599" type="curve" smooth="yes"/>
      <point x="146.0" y="516.9753124041814"/>
      <point x="208.24992722226787" y="419.3647683100691"/>
      <point x="232" y="359" type="curve"/>
      <point x="250" y="377" type="line"/>
      <point x="75" y="340" type="line"/>
      <point x="68" y="299" type="line"/>
      <point x="235" y="235" type="line"/>
      <point x="223" y="256" type="line"/>
      <point x="160" y="181"/>
      <point x="42.0" y="97.0"/>
      <point x="42" y="3" type="curve" smooth="yes"/>
      <point x="42" y="-102"/>
      <point x="150.68952364111013" y="-141.23227512642745"/>
      <point x="288" y="-146" type="curve"/>
      <point x="288" y="-146" type="line"/>
      <point x="300" y="-99" type="line"/>
      <point x="300" y="-99" type="line"/>
      <point x="194.900382304918" y="-88.76906376419555"/>
      <point x="142" y="-62"/>
      <point x="142" y="6" type="curve" smooth="yes"/>
      <point x="142.0" y="87.0"/>
      <point x="280.0" y="182.0"/>
      <point x="280" y="236" type="curve" smooth="yes"/>
    </contour>
  </outline>
</glyph>
<glyph name="Iogonek" format="2">
  <advance width="412"/>
  <unicode hex="012E"/>
  <outline>
    <contour>
      <point x="242" y="34" type="line"/>
      <point x="93.92724123321344" y="-30.59549879088003"/>
      <point x="8.0" y="-73.59116022099447"/>
      <point x="8" y="-148" type="curve" smooth="yes"/>
      <point x="8.0" y="-204.35955056179776"/>
      <point x="56.14782608695651" y="-236.0"/>
      <point x="121" y="-236" type="curve" smooth="yes"/>
      <point x="175" y="-236"/>
      <point x="213" y="-215"/>
      <point x="238" y="-192" type="curve"/>
      <point x="212" y="-155" type="line"/>
      <point x="196" y="-169"/>
      <point x="173" y="-183"/>
      <point x="149" y="-183" type="curve" smooth="yes"/>
      <point x="122.3953488372093" y="-183.0"/>
      <point x="105.0" y="-171.0"/>
      <point x="105" y="-142" type="curve" smooth="yes"/>
      <point x="105.0" y="-98.0"/>
      <point x="140.3674828489462" y="-53.31131703528429"/>
      <point x="269" y="10" type="curve"/>
    </contour>
    <component base="I"/>
  </outline>
</glyph>
<glyph name="Lslash" format="2">
  <advance width="706"/>
  <unicode hex="0141"/>
  <outline>
    <contour>
      <point x="20" y="188" type="line"/>
      <point x="537" y="455" type="line"/>
      <point x="550" y="526" type="line"/>
      <point x="33" y="259" type="line"/>
    </contour>
    <component base="L"/>
  </outline>
</glyph>
<glyph name="lslash" format="2">
  <advance width="360"/>
  <unicode hex="0142"/>
  <outline>
    <contour>
      <point x="10" y="208" type="line"/>
      <point x="366" y="452" type="line"/>
      <point x="379" y="526" type="line"/>
      <point x="22" y="282" type="line"/>
    </contour>
    <component base="l" xOffset="6"/>
  </outline>
</glyph>
<glyph name="oe" format="2">
  <advance width="1039"/>
  <unicode hex="0153"/>
  <outline>
    <contour>
      <point x="612" y="206" type="curve" smooth="yes"/>
      <point x="608" y="353"/>
      <point x="693" y="460"/>
      <point x="808" y="460" type="curve" smooth="yes"/>
      <point x="870" y="460"/>
      <point x="902" y="431"/>
      <point x="903" y="387" type="curve" smooth="yes"/>
      <point x="906" y="299"/>
      <point x="832" y="252"/>
      <point x="589" y="249" type="curve"/>
      <point x="581" y="198" type="line"/>
      <point x="864" y="197"/>
      <point x="1000" y="265"/>
      <point x="997" y="386" type="curve" smooth="yes"/>
      <point x="994" y="464"/>
      <point x="924" y="518"/>
      <point x="813" y="518" type="curve" smooth="yes"/>
      <point x="629" y="518"/>
      <point x="525" y="365"/>
      <point x="529" y="215" type="curve" smooth="yes"/>
      <point x="533" y="65"/>
      <point x="636" y="-12"/>
      <point x="767" y="-12" type="curve" smooth="yes"/>
      <point x="863" y="-12"/>
      <point x="932" y="27"/>
      <point x="979" y="71" type="curve"/>
      <point x="949" y="125" type="line"/>
      <point x="904" y="83"/>
      <point x="854" y="46"/>
      <point x="774" y="46" type="curve" smooth="yes"/>
      <point x="681" y="46"/>
      <point x="615" y="96"/>
    </contour>
    <contour>
      <point x="357" y="518" type="curve" smooth="yes"/>
      <point x="182" y="518"/>
      <point x="46" y="399"/>
      <point x="51" y="221" type="curve" smooth="yes"/>
      <point x="55" y="78"/>
      <point x="166" y="-12"/>
      <point x="308" y="-12" type="curve" smooth="yes"/>
      <point x="477" y="-12"/>
      <point x="602" y="109"/>
      <point x="597" y="293" type="curve" smooth="yes"/>
      <point x="593" y="429"/>
      <point x="495" y="518"/>
    </contour>
    <contour>
      <point x="488" y="175" type="curve" smooth="yes"/>
      <point x="459" y="103"/>
      <point x="400" y="46"/>
      <point x="311" y="46" type="curve" smooth="yes"/>
      <point x="216" y="46"/>
      <point x="155" y="106"/>
      <point x="152" y="205" type="curve" smooth="yes"/>
      <point x="151" y="246"/>
      <point x="158" y="291"/>
      <point x="175" y="331" type="curve" smooth="yes"/>
      <point x="204" y="404"/>
      <point x="263" y="460"/>
      <point x="354" y="460" type="curve" smooth="yes"/>
      <point x="447" y="460"/>
      <point x="508" y="400"/>
      <point x="511" y="301" type="curve" smooth="yes"/>
      <point x="512" y="260"/>
      <point x="504" y="215"/>
    </contour>
  </outline>
</glyph>
<glyph name="dong" format="2">
  <advance width="644"/>
  <unicode hex="20AB"/>
  <outline>
    <contour>
      <point x="210" y="-12" type="curve" smooth="yes"/>
      <point x="317" y="-12"/>
      <point x="386" y="60"/>
      <point x="462" y="190" type="curve"/>
      <point x="435" y="219" type="line"/>
      <point x="360" y="103"/>
      <point x="298" y="47"/>
      <point x="222" y="47" type="curve" smooth="yes"/>
      <point x="157" y="47"/>
      <point x="126" y="89"/>
      <point x="123" y="180" type="curve" smooth="yes"/>
      <point x="122" y="244"/>
      <point x="136" y="305"/>
      <point x="166" y="354" type="curve" smooth="yes"/>
      <point x="201" y="416"/>
      <point x="259" y="459"/>
      <point x="331" y="459" type="curve" smooth="yes"/>
      <point x="406" y="459"/>
      <point x="467" y="419"/>
      <point x="485" y="349" type="curve"/>
      <point x="537" y="403" type="line"/>
      <point x="497" y="470"/>
      <point x="429" y="518"/>
      <point x="335" y="518" type="curve" smooth="yes"/>
      <point x="146" y="518"/>
      <point x="18" y="362"/>
      <point x="22" y="187" type="curve" smooth="yes"/>
      <point x="26" y="53"/>
      <point x="97" y="-12"/>
    </contour>
    <contour>
      <point x="498" y="-7" type="curve" smooth="yes"/>
      <point x="541" y="-7"/>
      <point x="575" y="7"/>
      <point x="597" y="22" type="curve"/>
      <point x="606" y="75" type="line"/>
      <point x="593" y="71"/>
      <point x="558" y="54"/>
      <point x="524" y="54" type="curve" smooth="yes"/>
      <point x="502" y="54"/>
      <point x="492" y="62"/>
      <point x="491" y="81" type="curve" smooth="yes"/>
      <point x="491" y="96"/>
      <point x="495" y="120"/>
      <point x="501" y="163" type="curve" smooth="yes"/>
      <point x="601" y="735" type="line"/>
      <point x="506" y="735" type="line"/>
      <point x="403" y="127" type="line"/>
      <point x="410" y="140" type="line"/>
      <point x="402" y="113"/>
      <point x="400" y="95"/>
      <point x="400" y="78" type="curve" smooth="yes"/>
      <point x="402" y="23"/>
      <point x="441" y="-7"/>
    </contour>
    <contour>
      <point x="44" y="-188" type="line"/>
      <point x="540" y="-188" type="line"/>
      <point x="550" y="-127" type="line"/>
      <point x="54" y="-127" type="line"/>
    </contour>
    <contour>
      <point x="248" y="581" type="line"/>
      <point x="686" y="581" type="line"/>
      <point x="696" y="634" type="line"/>
      <point x="258" y="634" type="line"/>
    </contour>
  </outline>
</glyph>
<glyph name="numero" format="2">
  <advance width="1429"/>
  <unicode hex="2116"/>
  <outline>
    <contour>
      <point x="956" y="238" type="line"/>
      <point x="1344" y="238" type="line"/>
      <point x="1335" y="182" type="line"/>
      <point x="947" y="182" type="line"/>
    </contour>
    <component base="N" xOffset="1"/>
    <component base="ordmasculine" xOffset="866"/>
  </outline>
</glyph>
<glyph name="f_f_i" format="2">
  <advance width="1039"/>
  <unicode hex="FB03"/>
  <outline>
    <contour>
      <point x="47" y="508" type="line"/>
      <point x="38" y="453" type="line"/>
      <point x="399" y="453" type="line"/>
      <point x="408" y="508" type="line"/>
    </contour>
    <contour>
      <point x="371" y="681" type="curve" smooth="yes"/>
      <point x="404" y="681"/>
      <point x="430" y="674"/>
      <point x="454" y="664" type="curve"/>
      <point x="464" y="724" type="line"/>
      <point x="441" y="732"/>
      <point x="410" y="738"/>
      <point x="369" y="738" type="curve" smooth="yes"/>
      <point x="261" y="738"/>
      <point x="172" y="689"/>
      <point x="154" y="543" type="curve" smooth="yes"/>
      <point x="59" y="-223" type="line"/>
      <point x="135" y="-223" type="line"/>
      <point x="255" y="551" type="line" smooth="yes"/>
      <point x="270" y="648"/>
      <point x="307" y="681"/>
    </contour>
    <contour>
      <point x="719" y="694" type="curve" smooth="yes"/>
      <point x="741" y="694"/>
      <point x="762" y="690"/>
      <point x="771" y="688" type="curve"/>
      <point x="780" y="743" type="line"/>
      <point x="772" y="746"/>
      <point x="748" y="751"/>
      <point x="712" y="751" type="curve" smooth="yes"/>
      <point x="609" y="751"/>
      <point x="526" y="705"/>
      <point x="510" y="577" type="curve" smooth="yes"/>
      <point x="415" y="-193" type="line"/>
      <point x="491" y="-193" type="line"/>
      <point x="611" y="582" type="line" smooth="yes"/>
      <point x="624" y="669"/>
      <point x="659" y="694"/>
    </contour>
    <contour>
      <point x="917" y="623" type="curve" smooth="yes"/>
      <point x="956" y="623"/>
      <point x="985" y="647"/>
      <point x="985" y="685" type="curve" smooth="yes"/>
      <point x="985" y="723"/>
      <point x="957" y="746"/>
      <point x="918" y="746" type="curve" smooth="yes"/>
      <point x="879" y="746"/>
      <point x="851" y="723"/>
      <point x="851" y="685" type="curve" smooth="yes"/>
      <point x="851" y="646"/>
      <point x="878" y="623"/>
    </contour>
    <contour>
      <point x="896" y="160" type="curve" smooth="yes"/>
      <point x="957" y="508" type="line"/>
      <point x="398" y="508" type="line"/>
      <point x="389" y="453" type="line"/>
      <point x="759" y="453" type="line" smooth="yes"/>
      <point x="838" y="453"/>
      <point x="851" y="438"/>
      <point x="846" y="411" type="curve" smooth="yes"/>
      <point x="805" y="183" type="line" smooth="yes"/>
      <point x="794" y="123"/>
      <point x="792" y="103"/>
      <point x="792" y="73" type="curve" smooth="yes"/>
      <point x="792" y="20"/>
      <point x="832" y="-7"/>
      <point x="891" y="-7" type="curve" smooth="yes"/>
      <point x="929" y="-7"/>
      <point x="962" y="7"/>
      <point x="981" y="20" type="curve"/>
      <point x="991" y="73" type="line"/>
      <point x="981" y="69"/>
      <point x="950" y="54"/>
      <point x="920" y="54" type="curve" smooth="yes"/>
      <point x="897" y="54"/>
      <point x="886" y="65"/>
      <point x="886" y="83" type="curve" smooth="yes"/>
      <point x="886" y="100"/>
      <point x="889" y="120"/>
    </contour>
  </outline>
</glyph>
<glyph name="circumflex_grave" format="2">
  <advance width="587"/>
  <anchor x="289" y="564" name="_top"/>
  <outline>
    <contour>
      <point x="496" y="820" type="curve" smooth="yes"/>
      <point x="571" y="708" type="line"/>
      <point x="574" y="688" type="line"/>
      <point x="541" y="688" type="line"/>
      <point x="430" y="771" type="line" smooth="yes"/>
      <point x="401" y="794"/>
      <point x="382" y="809"/>
      <point x="381" y="834" type="curve" smooth="yes"/>
      <point x="381" y="855"/>
      <point x="399" y="874"/>
      <point x="426" y="874" type="curve" smooth="yes"/>
      <point x="456" y="874"/>
      <point x="474" y="857"/>
    </contour>
    <component base="circumflex" xOffset="1"/>
  </outline>
</glyph>
<glyph name="dollar.proportional" format="2">
  <advance width="673"/>
  <outline>
    <contour>
      <point x="329" y="12" type="curve" smooth="yes"/>
      <point x="492" y="12"/>
      <point x="604" y="89"/>
      <point x="604" y="209" type="curve" smooth="yes"/>
      <point x="604" y="314"/>
      <point x="500" y="357"/>
      <point x="385" y="404" type="curve" smooth="yes"/>
      <point x="282" y="446"/>
      <point x="208" y="463"/>
      <point x="208" y="537" type="curve" smooth="yes"/>
      <point x="208" y="604"/>
      <point x="258" y="641"/>
      <point x="388" y="641" type="curve" smooth="yes"/>
      <point x="487" y="641"/>
      <point x="552" y="616"/>
      <point x="575" y="569" type="curve"/>
      <point x="591" y="586"/>
      <point x="569" y="620"/>
      <point x="542" y="624" type="curve"/>
      <point x="525" y="528" type="line"/>
      <point x="623" y="528" type="line"/>
      <point x="640" y="627" type="line"/>
      <point x="602" y="661"/>
      <point x="511" y="698"/>
      <point x="389" y="698" type="curve" smooth="yes"/>
      <point x="208" y="698"/>
      <point x="126" y="633"/>
      <point x="126" y="526" type="curve" smooth="yes"/>
      <point x="126" y="420"/>
      <point x="215" y="387"/>
      <point x="322" y="341" type="curve" smooth="yes"/>
      <point x="432" y="294"/>
      <point x="517" y="274"/>
      <point x="517" y="194" type="curve" smooth="yes"/>
      <point x="517" y="114"/>
      <point x="448" y="70"/>
      <point x="331" y="70" type="curve" smooth="yes"/>
      <point x="202" y="70"/>
      <point x="107" y="112"/>
      <point x="76" y="188" type="curve"/>
      <point x="60" y="157"/>
      <point x="80" y="112"/>
      <point x="111" y="108" type="curve"/>
      <point x="130" y="215" type="line"/>
      <point x="27" y="215" type="line"/>
      <point x="11" y="127" type="line"/>
      <point x="61" y="66"/>
      <point x="176" y="12"/>
    </contour>
    <contour>
      <point x="392" y="790" type="line"/>
      <point x="373" y="675" type="line"/>
      <point x="371" y="665" type="line"/>
      <point x="261" y="48" type="line"/>
      <point x="260" y="40" type="line"/>
      <point x="232" y="-120" type="line"/>
      <point x="298" y="-120" type="line"/>
      <point x="324" y="32" type="line"/>
      <point x="326" y="41" type="line"/>
      <point x="436" y="664" type="line"/>
      <point x="438" y="673" type="line"/>
      <point x="458" y="790" type="line"/>
    </contour>
  </outline>
</glyph>
<glyph name="e.italic" format="2">
  <advance width="602"/>
  <anchor x="319" y="551" name="top"/>
  <anchor x="497" y="1" name="right"/>
  <anchor x="343" y="0" name="bottom"/>
  <outline>
    <contour>
      <point x="295" y="-12" type="curve" smooth="yes"/>
      <point x="403" y="-12"/>
      <point x="483" y="29"/>
      <point x="539" y="113" type="curve"/>
      <point x="492" y="150" type="line"/>
      <point x="451" y="89"/>
      <point x="399" y="47"/>
      <point x="300" y="47" type="curve" smooth="yes"/>
      <point x="208" y="47"/>
      <point x="142" y="97"/>
      <point x="142" y="212" type="curve" smooth="yes"/>
      <point x="142" y="360"/>
      <point x="230" y="460"/>
      <point x="341" y="460" type="curve" smooth="yes"/>
      <point x="435" y="460"/>
      <point x="492" y="383"/>
      <point x="466" y="265" type="curve"/>
      <point x="500" y="293" type="line"/>
      <point x="132" y="293" type="line"/>
      <point x="122" y="235" type="line"/>
      <point x="559" y="235" type="line"/>
      <point x="591" y="411"/>
      <point x="497" y="518"/>
      <point x="347" y="518" type="curve" smooth="yes"/>
      <point x="184" y="518"/>
      <point x="44" y="397"/>
      <point x="44" y="218" type="curve" smooth="yes"/>
      <point x="44" y="68"/>
      <point x="158" y="-12"/>
    </contour>
  </outline>
</glyph>
<glyph name="f_b" format="2">
  <advance width="1034"/>
  <outline>
    <contour>
      <point x="47" y="508" type="line"/>
      <point x="38" y="453" type="line"/>
      <point x="399" y="453" type="line"/>
      <point x="408" y="508" type="line"/>
    </contour>
    <contour>
      <point x="401" y="695" type="curve" smooth="yes"/>
      <point x="485" y="695"/>
      <point x="544" y="662"/>
      <point x="578" y="620" type="curve"/>
      <point x="612" y="683" type="line"/>
      <point x="576" y="712"/>
      <point x="501" y="752"/>
      <point x="399" y="752" type="curve" smooth="yes"/>
      <point x="272" y="752"/>
      <point x="174" y="698"/>
      <point x="156" y="555" type="curve" smooth="yes"/>
      <point x="59" y="-223" type="line"/>
      <point x="135" y="-223" type="line"/>
      <point x="257" y="563" type="line" smooth="yes"/>
      <point x="272" y="659"/>
      <point x="314" y="695"/>
    </contour>
    <contour>
      <point x="666" y="-12" type="curve" smooth="yes"/>
      <point x="858" y="-12"/>
      <point x="992" y="135"/>
      <point x="992" y="306" type="curve" smooth="yes"/>
      <point x="992" y="446"/>
      <point x="918" y="518"/>
      <point x="796" y="518" type="curve" smooth="yes"/>
      <point x="684" y="518"/>
      <point x="603" y="441"/>
      <point x="522" y="314" type="curve"/>
      <point x="549" y="285" type="line"/>
      <point x="629" y="400"/>
      <point x="700" y="459"/>
      <point x="778" y="459" type="curve" smooth="yes"/>
      <point x="854" y="459"/>
      <point x="891" y="409"/>
      <point x="891" y="313" type="curve" smooth="yes"/>
      <point x="891" y="172"/>
      <point x="800" y="47"/>
      <point x="667" y="47" type="curve" smooth="yes"/>
      <point x="585" y="47"/>
      <point x="523" y="83"/>
      <point x="502" y="143" type="curve"/>
      <point x="488" y="110"/>
      <point x="497" y="82"/>
      <point x="531" y="59" type="curve"/>
      <point x="646" y="735" type="line"/>
      <point x="470" y="735" type="line"/>
      <point x="544" y="691" type="line"/>
      <point x="436" y="64" type="line"/>
      <point x="483" y="25"/>
      <point x="558" y="-12"/>
    </contour>
  </outline>
</glyph>
<glyph name="f_f.alt" format="2">
  <advance width="747"/>
  <outline>
    <contour>
      <point x="38" y="453" type="line"/>
      <point x="426" y="453" type="line"/>
      <point x="436" y="508" type="line"/>
      <point x="47" y="508" type="line"/>
    </contour>
    <contour>
      <point x="59" y="-223" type="line"/>
      <point x="135" y="-223" type="line"/>
      <point x="255" y="551" type="line" smooth="yes"/>
      <point x="269" y="639"/>
      <point x="308" y="678.0"/>
      <point x="403" y="678" type="curve" smooth="yes"/>
      <point x="477" y="678.0"/>
      <point x="529" y="653"/>
      <point x="554" y="603" type="curve"/>
      <point x="571" y="638"/>
      <point x="552" y="687"/>
      <point x="523" y="683" type="curve"/>
      <point x="505" y="535" type="line"/>
      <point x="575" y="557" type="line"/>
      <point x="605" y="662" type="line"/>
      <point x="584" y="695"/>
      <point x="516" y="735"/>
      <point x="402" y="735" type="curve" smooth="yes"/>
      <point x="258" y="735.0"/>
      <point x="170" y="670"/>
      <point x="154" y="544" type="curve" smooth="yes"/>
    </contour>
    <contour>
      <point x="399" y="508" type="line"/>
      <point x="390" y="453" type="line"/>
      <point x="751" y="453" type="line"/>
      <point x="760" y="508" type="line"/>
    </contour>
    <contour>
      <point x="741" y="752" type="curve" smooth="yes"/>
      <point x="617.4155844155844" y="752.0"/>
      <point x="524.3558677860377" y="696.110751129959"/>
      <point x="507" y="555" type="curve" smooth="yes"/>
      <point x="415" y="-193" type="line"/>
      <point x="491" y="-193" type="line"/>
      <point x="608" y="563" type="line" smooth="yes"/>
      <point x="623.7996094735146" y="665.0897842904018"/>
      <point x="669.3846153846154" y="695.0"/>
      <point x="741" y="695" type="curve" smooth="yes"/>
      <point x="793" y="695.0"/>
      <point x="828" y="678"/>
      <point x="843" y="651" type="curve"/>
      <point x="864" y="669"/>
      <point x="844" y="706"/>
      <point x="810" y="705" type="curve"/>
      <point x="793" y="613" type="line"/>
      <point x="881" y="613" type="line"/>
      <point x="899" y="715" type="line"/>
      <point x="888" y="724"/>
      <point x="830" y="752"/>
    </contour>
  </outline>
</glyph>
<glyph name="f_f.short" format="2">
  <advance width="733"/>
  <outline>
    <contour>
      <point x="47" y="508" type="line"/>
      <point x="38" y="453" type="line"/>
      <point x="399" y="453" type="line"/>
      <point x="408" y="508" type="line"/>
    </contour>
    <contour>
      <point x="371" y="681" type="curve" smooth="yes"/>
      <point x="404" y="681"/>
      <point x="430" y="674"/>
      <point x="454" y="664" type="curve"/>
      <point x="464" y="724" type="line"/>
      <point x="441" y="732"/>
      <point x="410" y="738"/>
      <point x="369" y="738" type="curve" smooth="yes"/>
      <point x="261" y="738"/>
      <point x="172" y="689"/>
      <point x="154" y="543" type="curve" smooth="yes"/>
      <point x="59" y="-223" type="line"/>
      <point x="135" y="-223" type="line"/>
      <point x="255" y="551" type="line" smooth="yes"/>
      <point x="270" y="648"/>
      <point x="307" y="681"/>
    </contour>
    <contour>
      <point x="398" y="508" type="line"/>
      <point x="389" y="453" type="line"/>
      <point x="740" y="453" type="line"/>
      <point x="749" y="508" type="line"/>
    </contour>
    <contour>
      <point x="727" y="695" type="curve" smooth="yes"/>
      <point x="752" y="695"/>
      <point x="774" y="689"/>
      <point x="794" y="682" type="curve"/>
      <point x="805" y="741" type="line"/>
      <point x="784" y="747"/>
      <point x="757" y="752"/>
      <point x="725" y="752" type="curve" smooth="yes"/>
      <point x="617" y="752"/>
      <point x="525" y="706"/>
      <point x="507" y="557" type="curve" smooth="yes"/>
      <point x="415" y="-193" type="line"/>
      <point x="491" y="-193" type="line"/>
      <point x="608" y="565" type="line" smooth="yes"/>
      <point x="623" y="662"/>
      <point x="662" y="695"/>
    </contour>
  </outline>
</glyph>
<glyph name="f_f_b.alt" format="2">
  <advance width="1385"/>
  <outline>
    <contour>
      <point x="38" y="453" type="line"/>
      <point x="426" y="453" type="line"/>
      <point x="436" y="508" type="line"/>
      <point x="47" y="508" type="line"/>
    </contour>
    <contour>
      <point x="59" y="-223" type="line"/>
      <point x="135" y="-223" type="line"/>
      <point x="255" y="551" type="line" smooth="yes"/>
      <point x="269" y="639"/>
      <point x="308" y="678.0"/>
      <point x="403" y="678" type="curve" smooth="yes"/>
      <point x="477" y="678.0"/>
      <point x="529" y="653"/>
      <point x="554" y="603" type="curve"/>
      <point x="571" y="638"/>
      <point x="552" y="687"/>
      <point x="523" y="683" type="curve"/>
      <point x="505" y="535" type="line"/>
      <point x="575" y="557" type="line"/>
      <point x="605" y="662" type="line"/>
      <point x="584" y="695"/>
      <point x="516" y="735"/>
      <point x="402" y="735" type="curve" smooth="yes"/>
      <point x="258" y="735.0"/>
      <point x="170" y="670"/>
      <point x="154" y="544" type="curve" smooth="yes"/>
    </contour>
    <contour>
      <point x="398" y="508" type="line"/>
      <point x="389" y="453" type="line"/>
      <point x="750" y="453" type="line"/>
      <point x="759" y="508" type="line"/>
    </contour>
    <contour>
      <point x="752" y="695" type="curve" smooth="yes"/>
      <point x="836" y="695"/>
      <point x="895" y="662"/>
      <point x="929" y="620" type="curve"/>
      <point x="963" y="683" type="line"/>
      <point x="927" y="712"/>
      <point x="852" y="752"/>
      <point x="750" y="752" type="curve" smooth="yes"/>
      <point x="623" y="752"/>
      <point x="525" y="698"/>
      <point x="507" y="555" type="curve" smooth="yes"/>
      <point x="415" y="-193" type="line"/>
      <point x="491" y="-193" type="line"/>
      <point x="608" y="563" type="line" smooth="yes"/>
      <point x="623" y="659"/>
      <point x="665" y="695"/>
    </contour>
    <contour>
      <point x="1017" y="-12" type="curve" smooth="yes"/>
      <point x="1209" y="-12"/>
      <point x="1343" y="135"/>
      <point x="1343" y="306" type="curve" smooth="yes"/>
      <point x="1343" y="446"/>
      <point x="1269" y="518"/>
      <point x="1147" y="518" type="curve" smooth="yes"/>
      <point x="1035" y="518"/>
      <point x="954" y="441"/>
      <point x="873" y="314" type="curve"/>
      <point x="900" y="285" type="line"/>
      <point x="980" y="400"/>
      <point x="1051" y="459"/>
      <point x="1129" y="459" type="curve" smooth="yes"/>
      <point x="1205" y="459"/>
      <point x="1242" y="409"/>
      <point x="1242" y="313" type="curve" smooth="yes"/>
      <point x="1242" y="172"/>
      <point x="1151" y="47"/>
      <point x="1018" y="47" type="curve" smooth="yes"/>
      <point x="936" y="47"/>
      <point x="874" y="83"/>
      <point x="853" y="143" type="curve"/>
      <point x="839" y="110"/>
      <point x="848" y="82"/>
      <point x="882" y="59" type="curve"/>
      <point x="997" y="735" type="line"/>
      <point x="821" y="735" type="line"/>
      <point x="895" y="691" type="line"/>
      <point x="787" y="64" type="line"/>
      <point x="834" y="25"/>
      <point x="909" y="-12"/>
    </contour>
  </outline>
</glyph>
<glyph name="f_f_k.alt" format="2">
  <advance width="1314"/>
  <outline>
    <contour>
      <point x="38" y="453" type="line"/>
      <point x="426" y="453" type="line"/>
      <point x="436" y="508" type="line"/>
      <point x="47" y="508" type="line"/>
    </contour>
    <contour>
      <point x="59" y="-223" type="line"/>
      <point x="135" y="-223" type="line"/>
      <point x="255" y="551" type="line" smooth="yes"/>
      <point x="269" y="639"/>
      <point x="308" y="678.0"/>
      <point x="403" y="678" type="curve" smooth="yes"/>
      <point x="477" y="678.0"/>
      <point x="529" y="653"/>
      <point x="554" y="603" type="curve"/>
      <point x="571" y="638"/>
      <point x="552" y="687"/>
      <point x="523" y="683" type="curve"/>
      <point x="505" y="535" type="line"/>
      <point x="575" y="557" type="line"/>
      <point x="605" y="662" type="line"/>
      <point x="584" y="695"/>
      <point x="516" y="735"/>
      <point x="402" y="735" type="curve" smooth="yes"/>
      <point x="258" y="735.0"/>
      <point x="170" y="670"/>
      <point x="154" y="544" type="curve" smooth="yes"/>
    </contour>
    <contour>
      <point x="398" y="508" type="line"/>
      <point x="389" y="453" type="line"/>
      <point x="750" y="453" type="line"/>
      <point x="759" y="508" type="line"/>
    </contour>
    <contour>
      <point x="752" y="695" type="curve" smooth="yes"/>
      <point x="836" y="695"/>
      <point x="895" y="662"/>
      <point x="929" y="620" type="curve"/>
      <point x="963" y="683" type="line"/>
      <point x="927" y="712"/>
      <point x="852" y="752"/>
      <point x="750" y="752" type="curve" smooth="yes"/>
      <point x="623" y="752"/>
      <point x="525" y="698"/>
      <point x="507" y="555" type="curve" smooth="yes"/>
      <point x="415" y="-193" type="line"/>
      <point x="491" y="-193" type="line"/>
      <point x="608" y="563" type="line" smooth="yes"/>
      <point x="623" y="659"/>
      <point x="665" y="695"/>
    </contour>
    <contour>
      <point x="776" y="0" type="line"/>
      <point x="872" y="0" type="line"/>
      <point x="997" y="735" type="line"/>
      <point x="821" y="735" type="line"/>
      <point x="896" y="698" type="line"/>
    </contour>
    <contour>
      <point x="1138" y="136" type="line" smooth="yes"/>
      <point x="1167" y="80"/>
      <point x="1189" y="61"/>
      <point x="1223" y="61" type="curve" smooth="yes"/>
      <point x="1253" y="61"/>
      <point x="1274" y="70"/>
      <point x="1284" y="74" type="curve"/>
      <point x="1275" y="21" type="line"/>
      <point x="1259" y="8"/>
      <point x="1228" y="-7"/>
      <point x="1194" y="-7" type="curve" smooth="yes"/>
      <point x="1126" y="-7"/>
      <point x="1088" y="38"/>
      <point x="1050" y="113" type="curve" smooth="yes"/>
      <point x="962" y="286" type="line"/>
      <point x="963" y="291" type="line"/>
      <point x="1048" y="365"/>
      <point x="1131" y="436"/>
      <point x="1218" y="508" type="curve"/>
      <point x="1317" y="508" type="line"/>
      <point x="1317" y="498" type="line"/>
      <point x="1212" y="419"/>
      <point x="1106" y="338"/>
      <point x="1001" y="256" type="curve"/>
      <point x="1046" y="313" type="line"/>
    </contour>
  </outline>
</glyph>
<glyph name="f_f_k" format="2">
  <advance width="1314"/>
  <outline>
    <contour>
      <point x="398" y="508" type="line"/>
      <point x="389" y="453" type="line"/>
      <point x="750" y="453" type="line"/>
      <point x="759" y="508" type="line"/>
    </contour>
    <contour>
      <point x="752" y="695" type="curve" smooth="yes"/>
      <point x="836" y="695"/>
      <point x="895" y="662"/>
      <point x="929" y="620" type="curve"/>
      <point x="963" y="683" type="line"/>
      <point x="927" y="712"/>
      <point x="852" y="752"/>
      <point x="750" y="752" type="curve" smooth="yes"/>
      <point x="623" y="752"/>
      <point x="525" y="698"/>
      <point x="507" y="555" type="curve" smooth="yes"/>
      <point x="415" y="-193" type="line"/>
      <point x="491" y="-193" type="line"/>
      <point x="608" y="563" type="line" smooth="yes"/>
      <point x="623" y="659"/>
      <point x="665" y="695"/>
    </contour>
    <contour>
      <point x="47" y="508" type="line"/>
      <point x="38" y="453" type="line"/>
      <point x="399" y="453" type="line"/>
      <point x="408" y="508" type="line"/>
    </contour>
    <contour>
      <point x="371" y="681" type="curve" smooth="yes"/>
      <point x="404" y="681"/>
      <point x="430" y="674"/>
      <point x="454" y="664" type="curve"/>
      <point x="464" y="724" type="line"/>
      <point x="441" y="732"/>
      <point x="410" y="738"/>
      <point x="369" y="738" type="curve" smooth="yes"/>
      <point x="261" y="738"/>
      <point x="172" y="689"/>
      <point x="154" y="543" type="curve" smooth="yes"/>
      <point x="59" y="-223" type="line"/>
      <point x="135" y="-223" type="line"/>
      <point x="255" y="551" type="line" smooth="yes"/>
      <point x="270" y="648"/>
      <point x="307" y="681"/>
    </contour>
    <contour>
      <point x="776" y="0" type="line"/>
      <point x="872" y="0" type="line"/>
      <point x="997" y="735" type="line"/>
      <point x="821" y="735" type="line"/>
      <point x="896" y="698" type="line"/>
    </contour>
    <contour>
      <point x="1138" y="136" type="line" smooth="yes"/>
      <point x="1167" y="80"/>
      <point x="1189" y="61"/>
      <point x="1223" y="61" type="curve" smooth="yes"/>
      <point x="1253" y="61"/>
      <point x="1274" y="70"/>
      <point x="1284" y="74" type="curve"/>
      <point x="1275" y="21" type="line"/>
      <point x="1259" y="8"/>
      <point x="1228" y="-7"/>
      <point x="1194" y="-7" type="curve" smooth="yes"/>
      <point x="1126" y="-7"/>
      <point x="1088" y="38"/>
      <point x="1050" y="113" type="curve" smooth="yes"/>
      <point x="962" y="286" type="line"/>
      <point x="963" y="291" type="line"/>
      <point x="1048" y="365"/>
      <point x="1131" y="436"/>
      <point x="1218" y="508" type="curve"/>
      <point x="1317" y="508" type="line"/>
      <point x="1317" y="498" type="line"/>
      <point x="1212" y="419"/>
      <point x="1106" y="338"/>
      <point x="1001" y="256" type="curve"/>
      <point x="1046" y="313" type="line"/>
    </contour>
  </outline>
</glyph>
<glyph name="f_j.alt" format="2">
  <advance width="663"/>
  <outline>
    <contour>
      <point x="59" y="-223" type="line"/>
      <point x="135" y="-223" type="line"/>
      <point x="259" y="575" type="line" smooth="yes"/>
      <point x="273" y="664"/>
      <point x="326" y="695.0"/>
      <point x="423" y="695" type="curve" smooth="yes"/>
      <point x="500" y="695.0"/>
      <point x="545" y="674"/>
      <point x="571" y="647" type="curve"/>
      <point x="589" y="665"/>
      <point x="558" y="711"/>
      <point x="524" y="710" type="curve"/>
      <point x="510" y="612" type="line"/>
      <point x="601" y="612" type="line"/>
      <point x="616" y="713" type="line"/>
      <point x="599" y="725"/>
      <point x="530" y="752.0"/>
      <point x="424" y="752" type="curve" smooth="yes"/>
      <point x="267" y="752.0"/>
      <point x="173" y="691"/>
      <point x="157" y="563" type="curve" smooth="yes"/>
    </contour>
    <contour>
      <point x="419" y="-51" type="line" smooth="yes"/>
      <point x="405" y="-137"/>
      <point x="373" y="-173"/>
      <point x="313" y="-173" type="curve" smooth="yes"/>
      <point x="290" y="-173"/>
      <point x="270" y="-169"/>
      <point x="257" y="-165" type="curve"/>
      <point x="247" y="-226" type="line"/>
      <point x="263" y="-231"/>
      <point x="292" y="-236"/>
      <point x="317" y="-236" type="curve" smooth="yes"/>
      <point x="420" y="-236"/>
      <point x="490" y="-194"/>
      <point x="512" y="-60" type="curve" smooth="yes"/>
      <point x="606" y="508" type="line"/>
      <point x="47" y="508" type="line"/>
      <point x="38" y="453" type="line"/>
      <point x="408" y="453" type="line" smooth="yes"/>
      <point x="487" y="453"/>
      <point x="499" y="438"/>
      <point x="495" y="411" type="curve" smooth="yes"/>
    </contour>
  </outline>
</glyph>
<glyph name="f_l" format="2">
  <advance width="688"/>
  <outline>
    <contour>
      <point x="47" y="508" type="line"/>
      <point x="38" y="453" type="line"/>
      <point x="399" y="453" type="line"/>
      <point x="408" y="508" type="line"/>
    </contour>
    <contour>
      <point x="401" y="695" type="curve" smooth="yes"/>
      <point x="484.5833333333333" y="695.0"/>
      <point x="544.2232010450844" y="661.7242810619546"/>
      <point x="578" y="620" type="curve"/>
      <point x="612" y="683" type="line"/>
      <point x="575.5805980772993" y="712.3378515488422"/>
      <point x="501.4811320754717" y="752.0"/>
      <point x="399" y="752" type="curve" smooth="yes"/>
      <point x="272.4375" y="752.0"/>
      <point x="173.8474640501539" y="698.1477013507188"/>
      <point x="156" y="555" type="curve" smooth="yes"/>
      <point x="59" y="-223" type="line"/>
      <point x="135" y="-223" type="line"/>
      <point x="257" y="563" type="line" smooth="yes"/>
      <point x="271.9387776030204" y="659.2449114424103"/>
      <point x="314.1914893617021" y="695.0"/>
    </contour>
    <contour>
      <point x="546" y="163" type="curve"/>
      <point x="647" y="735" type="line"/>
      <point x="471" y="735" type="line"/>
      <point x="546" y="696" type="line"/>
      <point x="455" y="183" type="line" smooth="yes"/>
      <point x="445" y="124"/>
      <point x="440" y="101"/>
      <point x="440" y="73" type="curve" smooth="yes"/>
      <point x="440" y="20"/>
      <point x="482" y="-7"/>
      <point x="536" y="-7" type="curve" smooth="yes"/>
      <point x="577" y="-7"/>
      <point x="611" y="5"/>
      <point x="632" y="19" type="curve"/>
      <point x="642" y="72" type="line"/>
      <point x="631" y="68"/>
      <point x="598" y="54"/>
      <point x="567" y="54" type="curve" smooth="yes"/>
      <point x="546" y="54"/>
      <point x="535" y="65"/>
      <point x="535" y="84" type="curve" smooth="yes"/>
      <point x="535" y="98"/>
      <point x="539" y="122"/>
    </contour>
  </outline>
</glyph>
<glyph name="r.italic" format="2">
  <advance width="470"/>
  <anchor x="249" y="545" name="top"/>
  <anchor x="188" y="0" name="bottom"/>
  <outline>
    <contour>
      <point x="0" y="0" type="line"/>
      <point x="291" y="0" type="line"/>
      <point x="300" y="47" type="line"/>
      <point x="268" y="47" type="line" smooth="yes"/>
      <point x="241" y="47"/>
      <point x="188" y="50"/>
      <point x="193" y="80" type="curve" smooth="yes"/>
      <point x="242" y="359" type="line"/>
      <point x="232" y="358" type="line"/>
      <point x="259" y="508" type="line"/>
      <point x="85" y="508" type="line"/>
      <point x="77" y="461" type="line"/>
      <point x="91" y="459" type="line" smooth="yes"/>
      <point x="138" y="452"/>
      <point x="163" y="443"/>
      <point x="158" y="415" type="curve" smooth="yes"/>
      <point x="99" y="83" type="line" smooth="yes"/>
      <point x="94" y="55"/>
      <point x="58" y="47"/>
      <point x="17" y="47" type="curve" smooth="yes"/>
      <point x="8" y="47" type="line"/>
    </contour>
    <contour>
      <point x="455" y="512" type="line"/>
      <point x="448" y="515"/>
      <point x="431" y="518"/>
      <point x="411" y="518" type="curve" smooth="yes"/>
      <point x="313" y="518"/>
      <point x="258" y="433"/>
      <point x="187" y="293" type="curve"/>
      <point x="213" y="270" type="line"/>
      <point x="280" y="395"/>
      <point x="320" y="430"/>
      <point x="388" y="430" type="curve" smooth="yes"/>
      <point x="412" y="430"/>
      <point x="428" y="425"/>
      <point x="442" y="421" type="curve"/>
    </contour>
  </outline>
</glyph>
<glyph name="two.oldtab" format="2">
  <advance width="644"/>
  <outline>
    <contour>
      <point x="567" y="77" type="line"/>
      <point x="67" y="77" type="line"/>
      <point x="57" y="68"/>
      <point x="56" y="54"/>
      <point x="68" y="48" type="curve"/>
      <point x="307" y="139"/>
      <point x="578" y="215"/>
      <point x="573" y="392" type="curve" smooth="yes"/>
      <point x="570" y="501"/>
      <point x="486" y="558"/>
      <point x="336" y="558" type="curve" smooth="yes"/>
      <point x="243" y="558"/>
      <point x="161" y="523"/>
      <point x="118" y="494" type="curve"/>
      <point x="100" y="369" type="line"/>
      <point x="195" y="369" type="line"/>
      <point x="212" y="489" type="line"/>
      <point x="176" y="488"/>
      <point x="157" y="454"/>
      <point x="153" y="437" type="curve"/>
      <point x="180" y="460"/>
      <point x="243" y="499"/>
      <point x="337" y="499" type="curve" smooth="yes"/>
      <point x="426" y="499"/>
      <point x="469" y="465"/>
      <point x="471" y="392" type="curve" smooth="yes"/>
      <point x="475" y="240"/>
      <point x="267" y="186"/>
      <point x="37" y="92" type="curve"/>
      <point x="22" y="0" type="line"/>
      <point x="556" y="0" type="line"/>
    </contour>
  </outline>
</glyph>
<glyph name="whitediamond" format="2">
  <advance width="693"/>
  <outline>
    <contour>
      <point x="643" y="313" type="line"/>
      <point x="357" y="574" type="line"/>
      <point x="70" y="313" type="line"/>
      <point x="357" y="52" type="line"/>
    </contour>
    <contour>
      <point x="553" y="313" type="line"/>
      <point x="357" y="131" type="line"/>
      <point x="160" y="313" type="line"/>
      <point x="357" y="495" type="line"/>
    </contour>
  </outline>
</glyph>
